<?xml version="1.0" encoding="UTF-8"?><svg id="Voiture" xmlns="http://www.w3.org/2000/svg" viewBox="0 0 725.08 345.51"><defs><style>.cls-1,.cls-2{fill:#eee;}.cls-3,.cls-4{fill:#eaa815;}.cls-5{fill:#e83f18;}.cls-6,.cls-7{fill:#ddd;}.cls-8{fill:#f8fffe;}.cls-8,.cls-9,.cls-10,.cls-7,.cls-11,.cls-12,.cls-2,.cls-13,.cls-4,.cls-14,.cls-15{stroke:#000;stroke-linecap:round;stroke-linejoin:round;}.cls-8,.cls-9,.cls-10,.cls-7,.cls-11,.cls-12,.cls-2,.cls-13,.cls-4,.cls-15{stroke-width:3px;}.cls-9{fill:#74e2d7;}.cls-10{fill:#bbb;}.cls-11{fill:#ccc;}.cls-12{fill:#3b3b3b;}.cls-13{fill:#fff;}.cls-14{stroke-width:1.5px;}.cls-14,.cls-15{fill:none;}</style></defs><path d="m89.88,274.38s-12.07,13.76-53.28,3.75c-4.84-1.18-9.88-1.43-14.79-.6-.17.03-.33.06-.49.09-2.44.44-4.68-1.44-4.68-3.93h0c0-2.04,1.54-3.76,3.58-3.97l19.44-2.02,23.22-11.52,31.77-41.92,36.51-16.37,30.55-1.2,19.96,6.79,24.91,13.03,12.31,17.34,13.85,49.15h0c-6.46,5.84-13.96,10.4-22.12,13.44l-19.54,7.28-101.2-29.33Z"/><path d="m538.13,275.1s7.63,20.06,25.45,18.99,107.49-8.88,107.49-8.88c0,0,15.27-22.87,30.3-25.03l-3.16-25.53-16.28-20.97-18.85-14.76-22.57-6.58-22.69-2.47-27.13,4.66-16.44,6.9-17.18,12.14-4.21,14.1-5.06,14.49-7.63,22.07-2.04,10.87Z"/><path class="cls-6" d="m15.85,230.13c0,.11.02.22.03.34h-.02v-.34Z"/><path class="cls-1" d="m15.71,220.79l.14,9.34c-.22-3.12-.27-6.23-.14-9.34Z"/><path class="cls-9" d="m31.07,175.45c5.75-8.74,13.53-17.98,24.04-26.58,35.29-28.86,82.7-106.96,119.29-125.86C234.4-7.99,408-1.37,471.7,17.05c3.86,1.12,7.29,3.39,9.85,6.5l60.43,73.55c3.31,4.03,8.05,6.61,13.23,7.18,27.95,3.11,120.62,15.8,139.31,49.27,1.76,3.15,4.23,5.84,7.32,7.68,5.94,3.54,9.74,6.32,9.74,19.26v82.89s-.08,6.33-6.16,7.11c-5.29.68-10.05-3.39-10.6-8.69-1.92-18.42-10.79-65.1-72.07-65.1s-71.07,53.24-72.74,68.83c-.2,1.87-.27,3.74-.26,5.62.03,4.07-1.28,15.68-17.13,15.68H221.97s5.96-87.57-74.8-87.57-61.77,66.51-89.14,66.51c-20.6,0-32.87-5.29-38.63-17.76l11.67-72.56Z"/><path class="cls-15" d="m15.88,230.47c0-.12-.02-.23-.03-.34"/><line class="cls-15" x1="16.24" y1="214.26" x2="37.66" y2="214.26"/><line class="cls-15" x1="20.22" y1="196.97" x2="42.98" y2="196.97"/><polyline class="cls-15" points="15.71 220.79 15.85 230.13 15.86 230.47"/><path class="cls-7" d="m710.63,172.7s8.37-4.99,9.49,0,1.4,27.77-1.65,28.42c-3.05.66-7.05-.6-7.05-.6l-.8-27.82Z"/><circle class="cls-12" cx="621.9" cy="278.32" r="65.5"/><circle class="cls-11" cx="621.9" cy="278.32" r="53.5"/><path d="m621.9,239.82c15.63-1.98,31.41,8.64,36.65,23.32,1.79,4.88,2.47,10.14,1.85,15.18-1.16-9.9-5.36-19.13-12.34-26.16-7.03-6.98-16.26-11.18-26.16-12.34h0Z"/><circle class="cls-2" cx="621.9" cy="278.32" r="28.5"/><circle class="cls-10" cx="621.9" cy="278.32" r="7"/><circle class="cls-12" cx="146.9" cy="278.51" r="65.5"/><circle class="cls-11" cx="146.9" cy="278.51" r="53.5"/><path d="m146.9,240.01c15.63-1.98,31.41,8.64,36.65,23.32,1.79,4.88,2.47,10.14,1.85,15.18-1.16-9.9-5.36-19.13-12.34-26.16-7.03-6.98-16.26-11.18-26.16-12.34h0Z"/><circle class="cls-2" cx="146.9" cy="278.51" r="28.5"/><circle class="cls-10" cx="146.9" cy="278.51" r="7"/><path class="cls-8" d="m481.55,23.55s-9.06,2.93-2.1,12.19c5.85,7.79,39.97,52.63,52.18,66.5,3.74,4.24,10.68,3.73,13.44-1.21.12-.21.23-.43.34-.66l-63.85-76.83Z"/><path class="cls-15" d="m555.22,104.29s3.43,2.13-.69,16.93,8.73,39.44,23.31,39.12,122.47,0,122.47,0"/><path d="m561.4,213.01c13.52-19.61,36.71-32.84,60.75-32.64,24.06.2,46.52,12.44,64.05,28.13-10.75-7.77-22.12-14.54-34.4-19.3-34-13.15-66.7-3.37-90.4,23.8h0Z"/><path d="m81.9,209.64c20.34-20.34,50.92-31,79.35-24.92,19.31,3.99,36.85,15.04,50.65,28.8-11.65-9.45-24.36-17.42-38.39-22.5-1.54-.47-4.86-1.57-6.35-1.97-1.08-.25-3.23-.77-4.31-1.04-1.39-.39-5.05-.94-6.52-1.22-26.6-3.8-53.85,6.02-74.42,22.84h0Z"/><path class="cls-8" d="m168.4,27.01s4,10.89-.27,15.17l-39.5,39.5c-1.2,1.2-2.94,1.71-4.6,1.35l-7.63-3.02s29-39,52-53Z"/><circle class="cls-4" cx="688.4" cy="175.01" r="5"/><path d="m247.77,278.29c92.4-2.04,185.85-2.05,278.25,0-92.4,2.05-185.85,2.04-278.25,0h0Z"/><path d="m105.25,156.67c14.39-2.06,29.05-2.08,43.43,0-14.39,2.08-29.05,2.06-43.43,0h0Z"/><path d="m132.67,147.39c7.73-2.06,15.95-2.07,23.68,0-7.73,2.07-15.95,2.06-23.68,0h0Z"/><path class="cls-15" d="m105.03,94.5s1.69,14.49,13.03,14.49h11.23c3.71,0,7.11-2.06,8.85-5.34,7.91-14.99,20.89-41.88,58.8-65.14,19.78-12.13,68.97-19.08,120.12-20.91,67.1-2.4,137.57,4.02,149.39,19.13.84,1.08,1.66,2.17,2.59,3.17,11.09,12.03,72.04,79.37,72.04,105.91v88.97c0,5.7-1.21,11.37-3.76,16.46-3.34,6.65-9.44,13.69-20.31,13.69h-187.05c-2.81,0-5.62.07-8.43.14-6.55.16-25.28-1.26-25.28-22.87v-109.48c0-2.82.67-5.6,1.85-8.16,2.2-4.76,6.3-9.56,5.47-43.08-.99-39.47-.47-49.94,13.5-63.9"/><path class="cls-8" d="m326.77,118.38c-5.53,0-10-4.48-10-10V43.89c0-5.52,4.47-10,10-10h83.04c3.74,0,7.47-.05,11.21-.09,3.33-.03,10.29.28,19.31,2.82,14.08,3.95,28.18,13.32,46.24,35.21,4.36,5.29,8.67,11.32,12.83,18.18,8.02,13.22,3,27.18-3.48,27.18l-169.15,1.19Z"/><path class="cls-8" d="m177.6,118.03c23.88.1,68.69.51,94.73.76,11.12.11,20.19-8.88,20.19-20v-55.81c0-5.02-3.71-9.26-8.69-9.91-.2-.03-.4-.05-.6-.07-19.61-2.47-66.92-2.61-109.04,42.31-5.07,5.4-9.49,11.39-12.91,17.95-5.54,10.61-9.76,24.75,7.12,24.75,2.51,0,5.62.01,9.2.02Z"/><path class="cls-3" d="m31.07,175.45c.59-.1,25.95-4.44,17.19,10.97-2.05,3.6-3.79,7.11-5.26,10.56h-.02s-22.76-.01-22.76-.01c1.33-3.86,2.94-7.63,4.83-11.28,1.71-3.29,3.7-6.72,6.01-10.24h.01Z"/><path class="cls-5" d="m42.98,196.97h.02c-2.53,5.9-4.26,11.61-5.34,17.29h-21.42c.71-5.88,2.04-11.67,3.98-17.29h22.76Z"/><path class="cls-1" d="m16.24,214.26h21.42c-1.03,5.39-1.49,10.75-1.49,16.21H15.88c0-.12-.02-.23-.03-.34l-.14-9.34v-.04c.09-2.17.27-4.34.53-6.49Z"/><path class="cls-15" d="m15.71,230.01c.09-2.17.27-13.6.53-15.75.71-5.88,2.04-11.67,3.98-17.29,1.33-3.86,2.94-7.63,4.83-11.28,1.71-3.29,3.7-6.72,6.01-10.24"/><path class="cls-15" d="m31.06,175.45h.01c.59-.1,25.95-4.44,17.19,10.97-2.05,3.6-3.79,7.11-5.26,10.56-2.53,5.89-4.26,11.6-5.34,17.28-1.03,5.39-1.49,10.75-1.49,16.21"/><path class="cls-13" d="m352.4,144.51h-15.94c-1.03-2.91-3.8-5-7.06-5-4.14,0-7.5,3.36-7.5,7.5s3.36,7.5,7.5,7.5c3.26,0,6.03-2.09,7.06-5h15.94c1.38,0,2.5-1.12,2.5-2.5s-1.12-2.5-2.5-2.5Z"/><line class="cls-14" x1="326.9" y1="147.01" x2="331.9" y2="147.01"/><rect class="cls-7" x="699.58" y="235.65" width="24" height="12" rx="6" ry="6"/><path class="cls-7" d="m35.9,248.65H10c-4.69,0-8.5-3.81-8.5-8.5h0c0-12.32,5.77-16.81,10.16-20.97,1.51-1.44,4.02-.48,4.2,1.6l.47,5.32c.07-.08-.61,5.56,1.98,5.56h17.59c4.69,0,8.5,3.81,8.5,8.5h0c0,4.69-3.81,8.5-8.5,8.5Z"/></svg>